<svg id="visual" viewBox="0 0 900 600" width="900" height="600" xmlns="http://www.w3.org/2000/svg" xmlns:xlink="http://www.w3.org/1999/xlink" version="1.1"><rect x="0" y="0" width="900" height="600" fill="#5755e1"></rect><defs><linearGradient id="grad1_0" x1="33.3%" y1="100%" x2="100%" y2="0%"><stop offset="20%" stop-color="#5755e1" stop-opacity="1"></stop><stop offset="80%" stop-color="#5755e1" stop-opacity="1"></stop></linearGradient></defs><defs><linearGradient id="grad2_0" x1="0%" y1="100%" x2="66.7%" y2="0%"><stop offset="20%" stop-color="#5755e1" stop-opacity="1"></stop><stop offset="80%" stop-color="#5755e1" stop-opacity="1"></stop></linearGradient></defs><g transform="translate(900, 600)"><path d="M-216.3 0C-200.5 -23.1 -184.7 -46.2 -176.5 -73.1C-168.2 -100 -167.5 -130.6 -153 -153C-138.4 -175.3 -110.1 -189.5 -82.3 -198.6C-54.5 -207.8 -27.2 -212.1 0 -216.3L0 0Z" fill="#a64ba3"></path></g><g transform="translate(0, 0)"><path d="M216.3 0C215.5 30.1 214.7 60.2 199.9 82.8C185 105.4 156.1 120.6 132.2 132.2C108.4 143.9 89.7 151.9 68.5 165.4C47.3 178.8 23.7 197.6 0 216.3L0 0Z" fill="#a64ba3"></path></g></svg>