<svg id="visual" viewBox="0 0 900 600" width="900" height="600" xmlns="http://www.w3.org/2000/svg" xmlns:xlink="http://www.w3.org/1999/xlink" version="1.1"><rect x="0" y="0" width="900" height="600" fill="#fff"></rect><defs><linearGradient id="grad1_0" x1="33.3%" y1="0%" x2="100%" y2="100%"><stop offset="20%" stop-color="#ffffff" stop-opacity="1"></stop><stop offset="80%" stop-color="#ffffff" stop-opacity="1"></stop></linearGradient></defs><defs><linearGradient id="grad2_0" x1="0%" y1="0%" x2="66.7%" y2="100%"><stop offset="20%" stop-color="#ffffff" stop-opacity="1"></stop><stop offset="80%" stop-color="#ffffff" stop-opacity="1"></stop></linearGradient></defs><g transform="translate(900, 0)"><path d="M0 216.3C-29.2 214.5 -58.4 212.6 -82.8 199.9C-107.2 187.1 -126.8 163.6 -140.7 140.7C-154.7 117.8 -163 95.7 -174.6 72.3C-186.3 49 -201.3 24.5 -216.3 0L0 0Z" fill="#f85f78"></path></g><g transform="translate(0, 600)"><path d="M0 -216.3C28.1 -213.6 56.2 -210.8 82.8 -199.9C109.4 -188.9 134.5 -169.7 145.7 -145.7C156.8 -121.6 154.1 -92.8 163.5 -67.7C173 -42.7 194.7 -21.3 216.3 0L0 0Z" fill="#f85f78"></path></g></svg>